<svg width="48" height="48" viewBox="0 0 48 48" fill="none" xmlns="http://www.w3.org/2000/svg">
<path d="M5.71452 0H0V48H5.71452V0Z" fill="#383A4D"/>
<path d="M47.9999 27.6218H42.3638V48H47.9999V27.6218Z" fill="#383A4D"/>
<path d="M18.1338 28.2001H40.1489C40.1489 24.348 37.0221 21.2702 33.2189 21.2702H18.1338V28.2001Z" fill="#383A4D"/>
<path d="M11.7427 28.1511C13.5725 28.1511 15.0558 26.6854 15.0558 24.8773C15.0558 23.0692 13.5725 21.6034 11.7427 21.6034C9.91299 21.6034 8.42969 23.0692 8.42969 24.8773C8.42969 26.6854 9.91299 28.1511 11.7427 28.1511Z" fill="#383A4D"/>
<path d="M40.384 31.2387H7.62598V36.914H40.384V31.2387Z" fill="#383A4D"/>
<path d="M30.6308 0H15.0947V15.5066H30.6014V0H30.6308ZM26.1415 9.1844H24.2791V11.0468C24.2791 11.8211 23.6518 12.4582 22.8676 12.4582C22.0933 12.4582 21.4562 11.8309 21.4562 11.0468V9.1844H19.5938C18.8195 9.1844 18.1823 8.55708 18.1823 7.77292C18.1823 6.99857 18.8097 6.36145 19.5938 6.36145H21.4562V4.45987C21.4562 3.68552 22.0835 3.0484 22.8676 3.0484C23.642 3.0484 24.2791 3.67572 24.2791 4.45987V6.32224H26.1415C26.9158 6.32224 27.553 6.94956 27.553 7.73372V7.77292C27.5432 8.55708 26.9158 9.1844 26.1415 9.1844Z" fill="#383A4D"/>
</svg>
