<svg width="56" height="56" viewBox="0 0 56 56" fill="none" xmlns="http://www.w3.org/2000/svg">
<g clip-path="url(#clip0)">
<path d="M15.8659 27.4766C19.7397 27.4766 22.892 24.3248 22.892 20.4506V16.6511C22.892 12.7768 19.7402 9.625 15.8659 9.625C11.9921 9.625 8.83984 12.7768 8.83984 16.6511V20.4506C8.83984 24.3248 11.9916 27.4766 15.8659 27.4766Z" fill="#383A4D"/>
<path d="M42.5952 29.5706C45.7974 29.5706 48.4027 26.9652 48.4027 23.763V20.4971C48.4027 17.2945 45.7974 14.6896 42.5952 14.6896C39.3929 14.6896 36.7876 17.2945 36.7876 20.4971V23.7626C36.7876 26.9652 39.3929 29.5706 42.5952 29.5706Z" fill="#383A4D"/>
<path d="M51.9818 30.1614H49.0428C47.3953 31.8217 45.1134 32.8518 42.5952 32.8518C40.077 32.8518 37.7951 31.8217 36.1476 30.1614H34.6519C34.886 30.9241 35.0125 31.7333 35.0125 32.5715V46.3579H56.0001V34.1797C56.0001 31.964 54.1975 30.1614 51.9818 30.1614Z" fill="#383A4D"/>
<path d="M26.7875 27.6279H23.2559C21.3815 29.5569 18.7617 30.7579 15.8658 30.7579C12.9699 30.7579 10.3496 29.5569 8.47571 27.6279H4.94366C2.21783 27.6279 0 29.8453 0 32.5715V46.3579H31.7316V32.5715C31.7316 29.8453 29.5137 27.6279 26.7875 27.6279Z" fill="#383A4D"/>
</g>
<defs>
<clipPath id="clip0">
<rect width="56" height="56" fill="white"/>
</clipPath>
</defs>
</svg>
