<svg width="53" height="56" viewBox="0 0 53 56" fill="none" xmlns="http://www.w3.org/2000/svg">
<path d="M20.7967 6.54414C22.2489 6.48635 22.2478 4.41232 20.7967 4.35507H20.7959C19.3437 4.41308 19.3455 6.48711 20.7967 6.54414Z" fill="#383A4D"/>
<path d="M16.1529 19.0534L16.1523 19.0529C15.2975 18.1981 13.9117 18.1983 13.0568 19.0531C11.4853 20.6552 13.0237 23.2761 15.1717 22.7161L15.4449 22.9893C14.881 23.7804 14.488 24.7014 14.3201 25.6978H13.3893C13.0108 25.0435 12.3034 24.6033 11.4931 24.6033H11.4923C10.2834 24.6033 9.30371 25.5833 9.30371 26.7923C9.32593 29.041 12.2721 29.798 13.3894 27.8869H14.3202C14.4881 28.8833 14.8811 29.8043 15.445 30.5955L15.1718 30.8687C14.4059 30.664 13.5552 30.8839 12.9852 31.511L12.9846 31.5115C12.1714 32.4061 12.2376 33.7902 13.1322 34.6036C14.0243 35.415 15.4096 35.3524 16.2248 34.456C16.7447 33.8841 16.9052 33.1119 16.7197 32.4168L16.993 32.1435C17.7842 32.7074 18.7052 33.1004 19.7016 33.2683V34.199C19.0472 34.5775 18.607 35.2849 18.607 36.0952V36.096C18.607 37.3049 19.5871 38.2846 20.7961 38.2846C23.0448 38.2624 23.8018 35.3162 21.8906 34.1989V33.2682C22.8871 33.1003 23.8081 32.7073 24.5993 32.1434L24.8726 32.4167C24.6869 33.1118 24.8475 33.884 25.3675 34.4559L25.3681 34.4565C26.1833 35.353 27.5681 35.4148 28.4601 34.6033C29.3547 33.7901 29.4202 32.4053 28.6071 31.5107C28.037 30.8837 27.1863 30.6638 26.4203 30.8685L26.1473 30.5954C26.7112 29.8041 27.1043 28.8832 27.2721 27.8867H28.2028C28.5813 28.5411 29.2887 28.9813 30.099 28.9813H30.0998C31.3089 28.9813 32.2885 28.0012 32.2885 26.7922C32.2662 24.5435 29.3201 23.7865 28.2028 25.6977H27.2721C27.1042 24.7012 26.7112 23.7803 26.1473 22.989L26.4205 22.7158C27.1667 22.9122 27.9633 22.7175 28.5353 22.149L28.5359 22.1484C29.3907 21.2935 29.3905 19.9078 28.5355 19.0529C27.6807 18.198 26.2942 18.1984 25.4394 19.0531C24.8664 19.6261 24.6775 20.4376 24.8726 21.1679L24.5994 21.441C23.8081 20.877 22.8872 20.484 21.8907 20.3162V19.3855C22.545 19.007 22.9853 18.2996 22.9853 17.4893V17.4886C22.9853 16.2797 22.0052 15.3 20.7962 15.3C18.5475 15.3222 17.7905 18.2683 19.7017 19.3856V20.3163C18.7052 20.4842 17.7843 20.8773 16.993 21.4412L16.7198 21.168C16.9147 20.4378 16.7257 19.6263 16.1529 19.0534ZM20.7961 22.4143C23.2102 22.4143 25.1742 24.3783 25.1742 26.7924C24.9337 32.6007 16.6575 32.5989 16.418 26.7924C16.418 24.3783 18.382 22.4143 20.7961 22.4143Z" fill="#383A4D"/>
<path d="M46.582 39.1061C45.3601 37.8323 43.1607 37.8324 41.9386 39.1061L39.1616 41.8832L39.0571 41.7786C37.7768 40.4985 35.6937 40.4985 34.4137 41.7786C33.1336 43.0587 33.1336 45.1417 34.4137 46.4219L36.8399 48.8481C38.1202 50.1282 40.2031 50.1282 41.4834 48.8481L46.582 43.7495C47.8558 42.5275 47.8558 40.3283 46.582 39.1061ZM45.0341 42.2016L39.9355 47.3003C39.5089 47.7268 38.8146 47.7269 38.3879 47.3003L35.9617 44.874C35.5351 44.4474 35.5351 43.7531 35.9617 43.3264C36.3883 42.8998 37.0826 42.8998 37.5092 43.3264L38.3877 44.2049C38.7954 44.6288 39.528 44.6288 39.9357 44.2049L43.4866 40.654C43.8937 40.2296 44.627 40.2296 45.0341 40.654C45.4587 41.0614 45.4587 41.7943 45.0341 42.2016Z" fill="#383A4D"/>
<path d="M41.5921 31.9867V8.73308C41.5921 6.92251 40.1191 5.44949 38.3085 5.44949H34.7312C34.3521 4.79572 33.6445 4.35495 32.836 4.35495H26.159C24.8699 -1.45373 16.72 -1.44957 15.4332 4.35495H8.75626C7.94773 4.35495 7.24011 4.79561 6.86108 5.44949H3.2836C1.47302 5.44949 0 6.92251 0 8.73308V48.3552C0 50.1657 1.47302 51.6388 3.2836 51.6388H31.2167C38.3235 60.2501 52.4874 55.2791 52.5375 43.977C52.5375 37.7073 47.72 32.5415 41.5921 31.9867ZM39.4031 8.73308V31.9867C38.6516 32.0548 37.9198 32.1922 37.2141 32.3925V10.9221C37.2141 10.3176 36.724 9.82761 36.1196 9.82761H35.025V7.63855H38.3085C38.9121 7.63866 39.4031 8.12967 39.4031 8.73308ZM15.8712 10.9223H8.75626V6.54413H16.4179C17.0224 6.54413 17.5124 6.0541 17.5124 5.44959C17.6929 1.09292 23.9004 1.09489 24.0799 5.44959C24.0799 6.0541 24.57 6.54413 25.1745 6.54413H32.8361V10.9223H25.7221C24.2698 10.98 24.2709 13.0541 25.7221 13.1113H32.8361C33.6447 13.1113 34.3523 12.6706 34.7314 12.0168H35.0252V33.2545C32.0792 34.7642 29.8329 37.4526 28.9131 40.6933H11.4925C10.0403 40.7511 10.0414 42.8251 11.4925 42.8824H28.5071C28.4414 43.6016 28.4413 44.3523 28.5071 45.0716H6.5673V12.0167H6.86097C7.24 12.6706 7.94762 13.1112 8.75626 13.1112H15.8712C17.3234 13.0535 17.3223 10.9795 15.8712 10.9223ZM3.2836 49.4497C2.68007 49.4497 2.18906 48.9587 2.18906 48.3552V8.73308C2.18906 8.12956 2.68007 7.63855 3.2836 7.63855H6.56719V9.82761H5.47277C4.86826 9.82761 4.37824 10.3176 4.37824 10.9221V46.1661C4.37824 46.7706 4.86826 47.2606 5.47277 47.2606H28.9128C29.1294 48.0236 29.4195 48.7561 29.7749 49.4497H3.2836ZM40.4976 53.828C35.0659 53.828 30.6468 49.409 30.6468 43.9772C31.1879 30.9089 49.8092 30.9127 50.3484 43.9774C50.3484 49.409 45.9293 53.828 40.4976 53.828Z" fill="#383A4D"/>
<path d="M20.797 10.9223H20.7962C20.1917 10.9223 19.7021 11.4123 19.7021 12.0168C19.7599 13.4685 21.8342 13.4685 21.8915 12.0168C21.8915 11.4123 21.4015 10.9223 20.797 10.9223Z" fill="#383A4D"/>
</svg>
