<?xml version="1.0"?>
<svg xmlns="http://www.w3.org/2000/svg" viewBox="0 0 512 512" width="512" height="512"><g id="Outline"><path d="M391.355,225.594A32.054,32.054,0,0,0,360,200H288V147.73a47.777,47.777,0,0,0,16.469,9.7A32,32,0,0,0,368,152V119.537A16,16,0,0,0,379.038,98.06L367.515,69.248c-.46-1.376-.924-2.67-1.392-3.93A27.982,27.982,0,0,0,348,16H312a40.045,40.045,0,0,0-40,40V92.305A31.793,31.793,0,0,0,256,88H148.9a51.807,51.807,0,0,0-20.291,4.12,52.5,52.5,0,0,0-17.175,11.712,54.745,54.745,0,0,0-6.592,67.812l37.118,56.84A162.128,162.128,0,0,0,136,272v84.687L82.343,410.343l-24,24a8,8,0,0,0,0,11.314l43.314,43.314c9.528,9.528,27.2,9.486,36.686,0a24.028,24.028,0,0,0,0-33.942L131.314,448l66.343-66.343A8,8,0,0,0,200,376V328h2.234L216,369.3V488a8,8,0,0,0,8,8h58.053a21.948,21.948,0,0,0,6.94-42.769l-8.993-3V368a7.977,7.977,0,0,0-.239-1.94L256,271.015V255.2a40.028,40.028,0,0,0,8,.805h42.33A56.172,56.172,0,0,0,304,272v16a8,8,0,0,0,8,8h32a8,8,0,0,0,8-8V272a8,8,0,0,1,16,0V488a8,8,0,0,0,8,8h32a8,8,0,0,0,8-8V272A56.212,56.212,0,0,0,391.355,225.594ZM376,232v16H355.314l-5.657-5.657A8,8,0,0,0,344,240V216h16A16.019,16.019,0,0,1,376,232Zm-24-80a16,16,0,0,1-32,0V136a16.019,16.019,0,0,1,16-16h16Zm.409-77.477c.049.151.1.3.163.448L364.18,104H336a32.036,32.036,0,0,0-32,32v3.708A32.127,32.127,0,0,1,288,112V101.794c9.421-3.561,26.857-12.362,31.068-29.794H328V88h16V72h4a28.15,28.15,0,0,0,3.456-.221C351.774,72.661,352.091,73.569,352.409,74.523ZM288,56a24.027,24.027,0,0,1,24-24h36a12,12,0,0,1,0,24H312a8,8,0,0,0-8,8c0,10.114-8.678,16.638-16,20.342V56ZM122.866,115.026a36.6,36.6,0,0,1,11.971-8.168A35.913,35.913,0,0,1,148.9,104h67.942c-.27.365-.548.724-.8,1.1L200.292,128H138.14a8,8,0,0,0-6.7,12.373l29.486,45.163a162.189,162.189,0,0,0-12.347,23.823L118.239,162.9A38.643,38.643,0,0,1,122.866,115.026Zm47.768,56.111L152.917,144h36.375Zm-43.6,306.519c-3.353,3.353-10.724,3.337-14.06,0L75.313,440,88,427.314l26.343,26.343,12.687,12.687A8.007,8.007,0,0,1,127.03,477.656Zm160.97-3.6A5.954,5.954,0,0,1,282.053,480H232V464h38.7l13.232,4.411A5.94,5.94,0,0,1,288,474.053ZM264,448H232V368a8,8,0,0,0-.411-2.53l-16-48A8,8,0,0,0,208,312H192a8,8,0,0,0-8,8v52.687l-64,64L99.314,416l50.343-50.343A8,8,0,0,0,152,360V280h89.754L264,368.984ZM240,264H152.217A146.52,146.52,0,0,1,177.1,190c.037-.055,46.9-68.238,46.9-68.238V216a39.962,39.962,0,0,0,16,31.978Zm1.081-40.871A23.9,23.9,0,0,1,240,216V120a16.024,16.024,0,0,1,12.652-15.642c.488.087.964.182,1.412.294l.136-.544A16.214,16.214,0,0,1,256,104a16.019,16.019,0,0,1,16,16v88a8,8,0,0,0,8,8h48v24H264A24.044,24.044,0,0,1,241.081,223.129ZM336,280H320v-8a40.027,40.027,0,0,1,3.345-16h17.341l.762.762A23.858,23.858,0,0,0,336,272Zm64,200H384V272a23.889,23.889,0,0,0-1.376-8H384a8,8,0,0,0,8-8v-7.958A40.076,40.076,0,0,1,400,272Z"/></g></svg>
