<svg width="673" height="36" viewBox="0 0 673 36" fill="none" xmlns="http://www.w3.org/2000/svg">
<path d="M672.5 18C672.5 25.4731 666.663 31.5 659.5 31.5C652.337 31.5 646.5 25.4731 646.5 18C646.5 10.5269 652.337 4.5 659.5 4.5C666.663 4.5 672.5 10.5269 672.5 18Z" fill="white" stroke="#676565"/>
<circle cx="18" cy="18" r="16" fill="white" stroke="#3CB3BB" stroke-width="4"/>
<line x1="350" y1="17.5" x2="646" y2="17.5" stroke="#676565"/>
<path d="M349.5 18C349.5 25.4731 343.663 31.5 336.5 31.5C329.337 31.5 323.5 25.4731 323.5 18C323.5 10.5269 329.337 4.5 336.5 4.5C343.663 4.5 349.5 10.5269 349.5 18Z" fill="white" stroke="#676565"/>
<line x1="36" y1="17.5" x2="323" y2="17.5" stroke="#676565"/>
</svg>
