<?xml version="1.0" encoding="iso-8859-1"?>
<!-- Generator: Adobe Illustrator 19.0.0, SVG Export Plug-In . SVG Version: 6.00 Build 0)  -->
<svg version="1.1" id="Capa_1" xmlns="http://www.w3.org/2000/svg" xmlns:xlink="http://www.w3.org/1999/xlink" x="0px" y="0px"
	 viewBox="0 0 440.87 440.87" style="enable-background:new 0 0 440.87 440.87;" xml:space="preserve">
<g>
	<path d="M19.605,17.483C19.605,7.867,27.473,0,37.089,0h148.608c6.993,0,13.404,4.079,16.026,10.781
		c2.622,6.411,1.457,13.987-3.497,18.94L78.174,154.436h107.522c9.616,0,17.483,7.867,17.483,17.483s-7.867,17.483-17.483,17.483
		H37.089c-6.993,0-13.404-4.079-16.026-10.781c-2.622-6.411-1.457-13.987,3.497-18.94L144.611,34.967H37.089
		C27.473,34.967,19.605,27.099,19.605,17.483z M6.201,414.645l90.33-163.76c3.205-5.536,9.324-9.033,15.735-9.033
		c6.411,0,12.238,3.788,15.152,9.616l83.046,163.76c4.371,8.742,0.874,19.232-7.576,23.602c-2.622,1.166-5.245,2.04-7.867,2.04
		c-6.411,0-12.53-3.497-15.735-9.616l-8.742-17.483c-0.583,0-1.457,0-2.04,0H48.744c-0.874,0-1.457,0-2.331-0.291l-9.907,17.775
		c-4.662,8.45-15.444,11.656-23.894,6.993C4.453,433.585,1.539,423.095,6.201,414.645z M65.645,378.804h86.834l-41.668-82.171
		L65.645,378.804z M305.165,385.506c1.748,0.583,3.788,0.874,5.828,0.874c5.245,0,10.199-2.331,13.695-6.702l108.396-136.952
		c6.119-7.576,4.662-18.649-2.914-24.477c-7.576-6.119-18.649-4.662-24.477,2.914l-77.218,97.615V75.761
		c0-9.616-7.867-17.483-17.483-17.483c-9.616,0-17.483,7.867-17.483,17.483v293.136C293.51,376.473,298.172,382.884,305.165,385.506
		z"/>
</g>
<g>
</g>
<g>
</g>
<g>
</g>
<g>
</g>
<g>
</g>
<g>
</g>
<g>
</g>
<g>
</g>
<g>
</g>
<g>
</g>
<g>
</g>
<g>
</g>
<g>
</g>
<g>
</g>
<g>
</g>
</svg>
